<svg width="1919" height="1590" viewBox="0 0 1919 1590" fill="none" xmlns="http://www.w3.org/2000/svg">
<g clip-path="url(#clip0_462_11995)">
<rect width="1920" height="1590" transform="translate(-1)" fill="#272B52"/>
<mask id="mask0_462_11995" style="mask-type:alpha" maskUnits="userSpaceOnUse" x="1090" y="0" width="830" height="1920">
<rect x="1090" y="1920" width="1920" height="829.283" transform="rotate(-90 1090 1920)" fill="#D9D9D9"/>
</mask>
<g mask="url(#mask0_462_11995)">
<path d="M1401.23 -451.031C1572.34 -451.031 1614.27 -694.583 1614.27 6.735C1614.27 708.054 1572.34 2088.67 1401.23 2088.67C1230.12 2088.67 1091.41 1520.14 1091.41 818.818C1091.41 117.5 1230.12 -451.031 1401.23 -451.031Z" fill="#E9DEA6"/>
<path d="M1287.6 -42.5032C1387.41 -42.5032 1411.87 -228.749 1411.87 307.553C1411.87 843.856 1495.52 2018.39 1395.71 2018.39C1295.89 2018.39 1106.87 1464.86 1106.87 928.558C1106.87 392.256 1187.78 -42.5032 1287.6 -42.5032Z" fill="#CA5355"/>
<path d="M1336.79 -103.627C1436.61 -103.627 2498.37 -1040.8 1922.8 1837.09C1922.8 2373.39 1544.72 1957.27 1444.9 1957.27C1345.09 1957.27 1156.06 1403.74 1156.06 867.434C1156.06 331.132 1236.98 -103.627 1336.79 -103.627Z" fill="#F36A22"/>
<path d="M1476.33 469.925L1930.06 360.965L1943.17 358.654L1937.99 340.262L1917.07 309.204L1385.51 217.617L1350.6 260.45L1918.72 318.565L1920.71 329.798L1324.71 299.761L1285.17 349.202L1351.57 397.336L1923.02 342.903L1928.74 353.476L1429.09 431.926L1476.33 469.925Z" stroke="#F4EFD3" stroke-width="3.8021"/>
<path d="M1469.86 -17.8844L1911.14 308.604L1923.13 318.666L1935.8 300.097L1947.97 257.761L1628.56 -290.51L1563.56 -289.585L1940.78 266.326L1932.15 276.605L1508.56 -283.186L1434.11 -281.434L1440.94 -185.202L1922.09 288.597L1916.89 301.751L1468.39 -89.1869L1469.86 -17.8844Z" stroke="#F4EFD3" stroke-width="4.21669"/>
<path d="M1554.52 1487.64L1914.48 1221.32L1924.26 1213.11L1934.59 1228.26L1944.52 1262.79L1683.97 1710.02L1630.95 1709.27L1938.65 1255.81L1931.62 1247.42L1586.09 1704.05L1525.36 1702.62L1530.93 1624.12L1923.41 1237.64L1919.17 1226.91L1553.32 1545.8L1554.52 1487.64Z" stroke="#F4EFD3" stroke-width="4.21669"/>
<path d="M1366.07 1546.85C1366.07 1548.95 1367.78 1550.66 1369.88 1550.66L1392.72 1550.66C1394.82 1550.66 1396.53 1548.95 1396.53 1546.85C1396.53 1544.75 1394.82 1543.04 1392.72 1543.04L1369.88 1543.04C1367.78 1543.04 1366.07 1544.75 1366.07 1546.85ZM1383.32 1577.54C1383.57 1578.48 1384.2 1579.28 1385.1 1579.8C1386.92 1580.85 1389.29 1580.2 1390.34 1578.38L1401.76 1558.63C1402.81 1556.81 1402.15 1554.45 1400.33 1553.4C1398.51 1552.34 1396.15 1553 1395.1 1554.82L1383.68 1574.57C1383.15 1575.48 1383.07 1576.6 1383.32 1577.54ZM1383.32 1516.16C1383.07 1517.1 1383.15 1518.22 1383.68 1519.13L1395.1 1538.88C1396.15 1540.7 1398.51 1541.36 1400.33 1540.31C1402.15 1539.26 1402.81 1536.9 1401.76 1535.07L1390.34 1515.33C1389.29 1513.5 1386.92 1512.85 1385.1 1513.9C1384.2 1514.43 1383.57 1515.22 1383.32 1516.16ZM1406.16 1555.77C1405.91 1556.71 1405.99 1557.72 1406.52 1558.63L1417.94 1578.38C1418.99 1580.2 1421.35 1580.85 1423.17 1579.8C1424.99 1578.75 1425.65 1576.39 1424.6 1574.57L1413.18 1554.82C1412.13 1553 1409.76 1552.46 1407.95 1553.51C1407.04 1554.04 1406.41 1554.83 1406.16 1555.77ZM1406.16 1537.93C1406.41 1538.87 1407.04 1539.66 1407.95 1540.19C1409.76 1541.24 1412.13 1540.58 1413.18 1538.76L1424.6 1519.13C1425.65 1517.31 1424.99 1514.95 1423.17 1513.9C1421.35 1512.85 1418.99 1513.5 1417.94 1515.33L1406.64 1534.96C1406.11 1535.87 1405.91 1536.99 1406.16 1537.93ZM1411.75 1546.85C1411.75 1548.95 1413.46 1550.66 1415.56 1550.66L1438.4 1550.66C1440.5 1550.66 1442.21 1548.95 1442.21 1546.85C1442.21 1544.75 1440.5 1543.04 1438.4 1543.04L1415.56 1543.04C1413.46 1543.04 1411.75 1544.75 1411.75 1546.85Z" fill="white"/>
<path d="M1444.2 1444.93C1444.2 1445.71 1444.83 1446.34 1445.61 1446.34L1455.8 1446.34L1450.7 1455.16C1450.51 1455.5 1450.48 1455.91 1450.57 1456.26C1450.66 1456.61 1450.89 1456.9 1451.23 1457.1C1451.9 1457.48 1452.77 1457.24 1453.16 1456.57L1458.26 1447.78L1463.35 1456.57C1463.74 1457.24 1464.61 1457.48 1465.28 1457.1C1465.96 1456.71 1466.2 1455.84 1465.81 1455.16L1460.72 1446.34L1470.91 1446.34C1471.68 1446.34 1472.31 1445.71 1472.31 1444.93C1472.31 1444.15 1471.68 1443.52 1470.91 1443.52L1460.72 1443.52L1465.81 1434.7C1466.2 1434.02 1465.96 1433.15 1465.28 1432.76C1464.61 1432.38 1463.74 1432.62 1463.35 1433.29L1458.26 1442.08L1453.16 1433.29C1452.77 1432.62 1451.9 1432.38 1451.23 1432.76C1450.89 1432.96 1450.66 1433.25 1450.57 1433.6C1450.48 1433.95 1450.51 1434.36 1450.7 1434.7L1455.8 1443.52L1445.61 1443.52C1444.83 1443.52 1444.2 1444.15 1444.2 1444.93Z" fill="white"/>
<path d="M1339.02 494.775C1339.02 496.004 1340.01 497.001 1341.24 497.001L1357.38 497.001L1349.31 510.979C1349 511.511 1348.95 512.168 1349.1 512.717C1349.25 513.269 1349.61 513.732 1350.14 514.039C1351.21 514.653 1352.59 514.271 1353.2 513.205L1361.27 499.295L1369.34 513.205C1369.95 514.271 1371.33 514.653 1372.4 514.039C1373.46 513.425 1373.85 512.045 1373.23 510.979L1365.16 497.001L1381.3 497.001C1382.53 497.001 1383.53 496.004 1383.53 494.775C1383.53 493.547 1382.53 492.55 1381.3 492.55L1365.16 492.55L1373.23 478.572C1373.85 477.506 1373.46 476.126 1372.4 475.512C1371.33 474.897 1369.95 475.28 1369.34 476.346L1361.27 490.255L1353.2 476.346C1352.59 475.28 1351.21 474.897 1350.14 475.512C1349.61 475.819 1349.25 476.282 1349.1 476.834C1348.95 477.383 1349 478.04 1349.31 478.572L1357.38 492.55L1341.24 492.55C1340.01 492.55 1339.02 493.547 1339.02 494.775Z" fill="white"/>
</g>
<g filter="url(#filter0_ddd_462_11995)">
<path d="M884.299 1450.53C1059.08 1280.89 1086.78 1316.03 1179.14 1335.99C1183.38 1336.91 1184.83 1342.37 1181.85 1345.53C1160.76 1367.83 1187.03 1369.38 1181.76 1396.29C1181.39 1398.22 1179.83 1399.66 1177.91 1400.05L888.806 1459.36C883.757 1460.4 880.601 1454.12 884.299 1450.53Z" fill="#BA83F2"/>
<path d="M886.244 1446.79C1047.75 1342.64 1096.41 1359.58 1207.25 1391.32C1211.22 1392.46 1212.31 1397.53 1208.92 1399.89C1177.49 1421.77 1148.86 1412.8 1139.34 1438.85C1138.57 1440.95 1136.7 1442.53 1134.47 1442.65L889.314 1456.18C884.044 1456.48 881.808 1449.65 886.244 1446.79Z" fill="#8C3FD9"/>
<path d="M880.814 1450.61C1068.61 1376.82 1153.47 1398.15 1260.49 1444.43C1264.3 1446.08 1264.31 1451.07 1260.5 1453.02C1259.94 1453.31 1259.41 1453.58 1258.9 1453.83C1261.63 1453.95 1263.21 1456.14 1259.77 1463.54C1258.91 1465.38 1256.83 1466.54 1254.68 1466.51L882.346 1459.87C876.628 1459.77 875.461 1452.71 880.814 1450.61Z" fill="#BA83F2"/>
<path d="M1251.97 1313.34C1258.56 1306.31 1270.36 1310.61 1270.89 1320.23L1273.42 1365.76C1273.66 1370.14 1276.49 1373.95 1280.61 1375.45L1327.69 1392.58C1338.33 1396.45 1336.82 1411.95 1325.63 1413.7L1286.31 1419.84C1280.75 1420.7 1276.75 1425.65 1277.06 1431.27L1279.09 1467.85C1279.67 1478.26 1266.76 1483.51 1259.9 1475.66L1224.14 1434.71C1221.66 1431.88 1217.91 1430.51 1214.2 1431.09L1160.47 1439.47C1150.18 1441.08 1143.66 1428.76 1150.8 1421.15L1175.87 1394.44C1179.72 1390.33 1179.83 1383.97 1176.13 1379.73L1149.95 1349.76C1142.51 1341.23 1151.31 1328.39 1161.95 1332.26L1209.03 1349.39C1213.15 1350.89 1217.76 1349.79 1220.76 1346.59L1251.97 1313.34Z" fill="white"/>
<path d="M1252.89 1316.28C1259.49 1309.25 1271.29 1313.55 1271.82 1323.17L1274.23 1366.57C1274.47 1370.95 1277.3 1374.76 1281.42 1376.26L1325.94 1392.46C1336.58 1396.33 1335.07 1411.83 1323.88 1413.58L1287.04 1419.32C1281.48 1420.19 1277.48 1425.14 1277.79 1430.76L1279.71 1465.21C1280.29 1475.61 1267.38 1480.87 1260.52 1473.02L1226.41 1433.96C1223.94 1431.13 1220.18 1429.76 1216.47 1430.34L1165.23 1438.34C1154.93 1439.94 1148.42 1427.62 1155.55 1420.02L1179.16 1394.86C1183.01 1390.75 1183.13 1384.4 1179.42 1380.15L1154.9 1352.07C1147.45 1343.54 1156.26 1330.7 1166.9 1334.57L1211.42 1350.78C1215.53 1352.27 1220.15 1351.17 1223.15 1347.98L1252.89 1316.28Z" fill="#DFCDF2"/>
</g>
<g filter="url(#filter1_ddd_462_11995)">
<path d="M1830.36 1160.53C1655.58 990.889 1627.87 1026.03 1535.52 1045.99C1531.28 1046.91 1529.83 1052.37 1532.81 1055.53C1553.9 1077.83 1527.62 1079.38 1532.89 1106.29C1533.27 1108.22 1534.83 1109.66 1536.75 1110.05L1825.85 1169.36C1830.9 1170.4 1834.05 1164.12 1830.36 1160.53Z" fill="#FEB048"/>
<path d="M1828.41 1156.79C1666.91 1052.64 1618.25 1069.58 1507.41 1101.32C1503.44 1102.46 1502.35 1107.53 1505.74 1109.89C1537.16 1131.77 1565.8 1122.8 1575.32 1148.85C1576.08 1150.95 1577.96 1152.53 1580.19 1152.65L1825.34 1166.18C1830.61 1166.48 1832.85 1159.65 1828.41 1156.79Z" fill="#D25827"/>
<path d="M1833.84 1160.61C1646.04 1086.82 1561.19 1108.15 1454.16 1154.43C1450.36 1156.08 1450.34 1161.07 1454.16 1163.02C1454.72 1163.31 1455.25 1163.58 1455.75 1163.83C1453.03 1163.95 1451.44 1166.14 1454.89 1173.54C1455.75 1175.38 1457.82 1176.54 1459.97 1176.51L1832.31 1169.87C1838.03 1169.77 1839.19 1162.71 1833.84 1160.61Z" fill="#F2A343"/>
<path d="M1462.69 1023.34C1456.1 1016.31 1444.3 1020.61 1443.76 1030.23L1441.23 1075.76C1440.99 1080.14 1438.16 1083.95 1434.04 1085.45L1386.97 1102.58C1376.33 1106.45 1377.84 1121.95 1389.02 1123.7L1428.35 1129.84C1433.91 1130.7 1437.91 1135.65 1437.6 1141.27L1435.56 1177.85C1434.99 1188.26 1447.9 1193.51 1454.75 1185.66L1490.52 1144.71C1492.99 1141.88 1496.74 1140.51 1500.46 1141.09L1554.18 1149.47C1564.48 1151.08 1570.99 1138.76 1563.86 1131.15L1538.79 1104.44C1534.93 1100.33 1534.82 1093.97 1538.52 1089.73L1564.7 1059.76C1572.15 1051.23 1563.34 1038.39 1552.7 1042.26L1505.63 1059.39C1501.51 1060.89 1496.89 1059.79 1493.89 1056.59L1462.69 1023.34Z" fill="white"/>
<path d="M1461.76 1026.28C1455.17 1019.25 1443.37 1023.55 1442.84 1033.17L1440.42 1076.57C1440.18 1080.95 1437.35 1084.76 1433.23 1086.26L1388.72 1102.46C1378.08 1106.33 1379.59 1121.83 1390.77 1123.58L1427.61 1129.33C1433.17 1130.19 1437.17 1135.14 1436.86 1140.76L1434.95 1175.21C1434.37 1185.61 1447.28 1190.87 1454.14 1183.02L1488.25 1143.96C1490.72 1141.13 1494.47 1139.76 1498.19 1140.34L1549.43 1148.34C1559.72 1149.94 1566.24 1137.62 1559.1 1130.02L1535.49 1104.86C1531.64 1100.75 1531.53 1094.4 1535.23 1090.16L1559.75 1062.07C1567.2 1053.54 1558.4 1040.7 1547.76 1044.57L1503.24 1060.78C1499.12 1062.27 1494.5 1061.17 1491.5 1057.98L1461.76 1026.28Z" fill="#F36A22"/>
</g>
</g>
<defs>
<filter id="filter0_ddd_462_11995" x="874.778" y="1307.27" width="463.227" height="175.014" filterUnits="userSpaceOnUse" color-interpolation-filters="sRGB">
<feFlood flood-opacity="0" result="BackgroundImageFix"/>
<feColorMatrix in="SourceAlpha" type="matrix" values="0 0 0 0 0 0 0 0 0 0 0 0 0 0 0 0 0 0 127 0" result="hardAlpha"/>
<feOffset dx="-2.5888" dy="-2.5888"/>
<feComposite in2="hardAlpha" operator="out"/>
<feColorMatrix type="matrix" values="0 0 0 0 1 0 0 0 0 1 0 0 0 0 1 0 0 0 1 0"/>
<feBlend mode="normal" in2="BackgroundImageFix" result="effect1_dropShadow_462_11995"/>
<feColorMatrix in="SourceAlpha" type="matrix" values="0 0 0 0 0 0 0 0 0 0 0 0 0 0 0 0 0 0 127 0" result="hardAlpha"/>
<feOffset dy="2.84768"/>
<feComposite in2="hardAlpha" operator="out"/>
<feColorMatrix type="matrix" values="0 0 0 0 1 0 0 0 0 1 0 0 0 0 1 0 0 0 1 0"/>
<feBlend mode="normal" in2="effect1_dropShadow_462_11995" result="effect2_dropShadow_462_11995"/>
<feColorMatrix in="SourceAlpha" type="matrix" values="0 0 0 0 0 0 0 0 0 0 0 0 0 0 0 0 0 0 127 0" result="hardAlpha"/>
<feOffset dx="3.10656" dy="1.03552"/>
<feComposite in2="hardAlpha" operator="out"/>
<feColorMatrix type="matrix" values="0 0 0 0 1 0 0 0 0 1 0 0 0 0 1 0 0 0 1 0"/>
<feBlend mode="normal" in2="effect2_dropShadow_462_11995" result="effect3_dropShadow_462_11995"/>
<feBlend mode="normal" in="SourceGraphic" in2="effect3_dropShadow_462_11995" result="shape"/>
</filter>
<filter id="filter1_ddd_462_11995" x="1377.17" y="1017.27" width="463.227" height="175.014" filterUnits="userSpaceOnUse" color-interpolation-filters="sRGB">
<feFlood flood-opacity="0" result="BackgroundImageFix"/>
<feColorMatrix in="SourceAlpha" type="matrix" values="0 0 0 0 0 0 0 0 0 0 0 0 0 0 0 0 0 0 127 0" result="hardAlpha"/>
<feOffset dx="-2.5888" dy="-2.5888"/>
<feComposite in2="hardAlpha" operator="out"/>
<feColorMatrix type="matrix" values="0 0 0 0 1 0 0 0 0 1 0 0 0 0 1 0 0 0 1 0"/>
<feBlend mode="normal" in2="BackgroundImageFix" result="effect1_dropShadow_462_11995"/>
<feColorMatrix in="SourceAlpha" type="matrix" values="0 0 0 0 0 0 0 0 0 0 0 0 0 0 0 0 0 0 127 0" result="hardAlpha"/>
<feOffset dy="2.84768"/>
<feComposite in2="hardAlpha" operator="out"/>
<feColorMatrix type="matrix" values="0 0 0 0 1 0 0 0 0 1 0 0 0 0 1 0 0 0 1 0"/>
<feBlend mode="normal" in2="effect1_dropShadow_462_11995" result="effect2_dropShadow_462_11995"/>
<feColorMatrix in="SourceAlpha" type="matrix" values="0 0 0 0 0 0 0 0 0 0 0 0 0 0 0 0 0 0 127 0" result="hardAlpha"/>
<feOffset dx="3.10656" dy="1.03552"/>
<feComposite in2="hardAlpha" operator="out"/>
<feColorMatrix type="matrix" values="0 0 0 0 1 0 0 0 0 1 0 0 0 0 1 0 0 0 1 0"/>
<feBlend mode="normal" in2="effect2_dropShadow_462_11995" result="effect3_dropShadow_462_11995"/>
<feBlend mode="normal" in="SourceGraphic" in2="effect3_dropShadow_462_11995" result="shape"/>
</filter>
<clipPath id="clip0_462_11995">
<rect width="1920" height="1590" fill="white" transform="translate(-1)"/>
</clipPath>
</defs>
</svg>
