<svg width="1080" height="3253" viewBox="0 0 1080 3253" fill="none" xmlns="http://www.w3.org/2000/svg">
<g clip-path="url(#clip0_524_11999)">
<rect width="1080" height="3254" transform="translate(0 -1)" fill="#272B52"/>
<mask id="mask0_524_11999" style="mask-type:alpha" maskUnits="userSpaceOnUse" x="-6" y="2047" width="1086" height="1206">
<rect x="-6" y="2047.34" width="1086" height="1205.66" fill="#D9D9D9"/>
</mask>
<g mask="url(#mask0_524_11999)">
<path d="M1104.04 2334.62C1104.04 2479.74 1209.39 2515.3 906.041 2515.3C602.695 2515.3 -61.6504 2636.92 -61.6504 2491.8C-61.6504 2346.68 251.439 2071.86 554.786 2071.86C858.132 2071.86 1104.04 2189.5 1104.04 2334.62Z" fill="#CA5355"/>
<path d="M1138.61 2406.14C1138.61 2551.26 1668.7 4094.92 40.8956 3258.11C-262.45 3258.11 -27.0787 2708.44 -27.0787 2563.32C-27.0787 2418.2 286.011 2143.38 589.357 2143.38C892.703 2143.38 1138.61 2261.02 1138.61 2406.14Z" fill="#F36A22"/>
</g>
<g filter="url(#filter0_ddd_524_11999)">
<path d="M1143.35 1910.53C968.575 1740.89 940.874 1776.03 848.515 1795.99C844.274 1796.91 842.827 1802.37 845.808 1805.53C866.897 1827.83 840.624 1829.38 845.89 1856.29C846.267 1858.22 847.829 1859.66 849.749 1860.06L1138.85 1919.36C1143.9 1920.4 1147.05 1914.12 1143.35 1910.53Z" fill="#BA83F2"/>
<path d="M1141.41 1906.79C979.909 1802.64 931.249 1819.58 820.405 1851.32C816.436 1852.46 815.347 1857.53 818.735 1859.89C850.16 1881.77 878.799 1872.8 888.314 1898.85C889.082 1900.95 890.954 1902.53 893.189 1902.65L1138.34 1916.18C1143.61 1916.48 1145.85 1909.65 1141.41 1906.79Z" fill="#8C3FD9"/>
<path d="M1146.84 1910.61C959.044 1836.82 874.185 1858.15 767.163 1904.43C763.359 1906.08 763.34 1911.07 767.155 1913.02C767.716 1913.31 768.248 1913.58 768.753 1913.83C766.027 1913.95 764.439 1916.14 767.885 1923.54C768.746 1925.38 770.82 1926.54 772.971 1926.51L1145.31 1919.87C1151.03 1919.77 1152.19 1912.71 1146.84 1910.61Z" fill="#BA83F2"/>
<path d="M775.687 1773.34C769.094 1766.31 757.295 1770.61 756.761 1780.23L754.232 1825.76C753.989 1830.14 751.161 1833.95 747.041 1835.45L699.966 1852.58C689.327 1856.45 690.837 1871.95 702.024 1873.7L741.346 1879.84C746.908 1880.7 750.907 1885.65 750.595 1891.27L748.563 1927.85C747.985 1938.26 760.896 1943.51 767.752 1935.66L803.517 1894.71C805.99 1891.88 809.742 1890.51 813.457 1891.09L867.18 1899.47C877.479 1901.08 883.99 1888.76 876.858 1881.15L851.786 1854.44C847.934 1850.33 847.82 1843.97 851.523 1839.73L877.701 1809.76C885.148 1801.23 876.342 1788.39 865.703 1792.26L818.628 1809.39C814.509 1810.89 809.892 1809.79 806.893 1806.59L775.687 1773.34Z" fill="white"/>
<path d="M774.76 1776.28C768.167 1769.25 756.368 1773.55 755.834 1783.17L753.424 1826.57C753.181 1830.95 750.352 1834.76 746.233 1836.26L701.715 1852.46C691.076 1856.33 692.586 1871.83 703.773 1873.58L740.611 1879.33C746.173 1880.19 750.172 1885.14 749.859 1890.76L747.946 1925.21C747.368 1935.61 760.279 1940.87 767.135 1933.02L801.246 1893.96C803.719 1891.13 807.472 1889.76 811.186 1890.34L862.425 1898.34C872.723 1899.94 879.235 1887.62 872.103 1880.02L848.493 1854.86C844.641 1850.75 844.527 1844.4 848.23 1840.16L872.754 1812.07C880.201 1803.54 871.396 1790.7 860.756 1794.57L816.239 1810.78C812.119 1812.27 807.503 1811.17 804.504 1807.98L774.76 1776.28Z" fill="#DFCDF2"/>
</g>
<g filter="url(#filter1_ddd_524_11999)">
<path d="M1114.35 669.534C939.574 499.889 911.873 535.028 819.514 554.993C815.273 555.909 813.826 561.372 816.807 564.525C837.896 586.833 811.623 588.383 816.889 615.291C817.266 617.215 818.828 618.661 820.748 619.055L1109.85 678.36C1114.9 679.396 1118.05 673.124 1114.35 669.534Z" fill="#FEB048"/>
<path d="M1112.41 665.792C950.908 561.644 902.248 578.579 791.404 610.324C787.435 611.461 786.346 616.529 789.734 618.888C821.159 640.765 849.798 631.796 859.313 657.851C860.081 659.953 861.953 661.529 864.188 661.653L1109.34 675.185C1114.61 675.476 1116.84 668.653 1112.41 665.792Z" fill="#D25827"/>
<path d="M1117.84 669.607C930.043 595.816 845.184 617.153 738.162 663.434C734.358 665.079 734.339 670.066 738.154 672.022C738.715 672.309 739.247 672.578 739.752 672.831C737.026 672.945 735.438 675.143 738.884 682.535C739.745 684.383 741.819 685.544 743.97 685.505L1116.31 678.875C1122.03 678.773 1123.19 671.71 1117.84 669.607Z" fill="#F2A343"/>
<path d="M746.686 532.338C740.093 525.312 728.294 529.607 727.76 539.227L725.231 584.761C724.988 589.138 722.16 592.948 718.04 594.447L670.965 611.581C660.326 615.454 661.836 630.953 673.023 632.698L712.345 638.835C717.907 639.703 721.906 644.646 721.594 650.266L719.562 686.85C718.984 697.257 731.895 702.514 738.751 694.663L774.516 653.708C776.989 650.876 780.741 649.51 784.456 650.09L838.179 658.474C848.478 660.081 854.989 647.756 847.857 640.155L822.785 613.436C818.933 609.331 818.819 602.975 822.522 598.734L848.7 568.757C856.147 560.229 847.342 547.385 836.702 551.258L789.627 568.392C785.508 569.891 780.891 568.791 777.892 565.594L746.686 532.338Z" fill="white"/>
<path d="M745.759 535.28C739.166 528.254 727.367 532.548 726.833 542.168L724.423 585.569C724.18 589.946 721.351 593.756 717.232 595.255L672.714 611.458C662.075 615.331 663.585 630.83 674.772 632.576L711.61 638.325C717.172 639.193 721.171 644.135 720.858 649.756L718.945 684.206C718.367 694.613 731.278 699.87 738.134 692.019L772.245 652.958C774.718 650.126 778.471 648.76 782.185 649.34L833.424 657.336C843.722 658.944 850.234 646.618 843.102 639.017L819.492 613.856C815.64 609.751 815.526 603.395 819.229 599.155L843.753 571.072C851.2 562.543 842.395 549.7 831.755 553.572L787.238 569.775C783.118 571.275 778.502 570.174 775.503 566.977L745.759 535.28Z" fill="#F36A22"/>
</g>
</g>
<defs>
<filter id="filter0_ddd_524_11999" x="690.167" y="1767.27" width="463.227" height="175.014" filterUnits="userSpaceOnUse" color-interpolation-filters="sRGB">
<feFlood flood-opacity="0" result="BackgroundImageFix"/>
<feColorMatrix in="SourceAlpha" type="matrix" values="0 0 0 0 0 0 0 0 0 0 0 0 0 0 0 0 0 0 127 0" result="hardAlpha"/>
<feOffset dx="-2.5888" dy="-2.5888"/>
<feComposite in2="hardAlpha" operator="out"/>
<feColorMatrix type="matrix" values="0 0 0 0 1 0 0 0 0 1 0 0 0 0 1 0 0 0 1 0"/>
<feBlend mode="normal" in2="BackgroundImageFix" result="effect1_dropShadow_524_11999"/>
<feColorMatrix in="SourceAlpha" type="matrix" values="0 0 0 0 0 0 0 0 0 0 0 0 0 0 0 0 0 0 127 0" result="hardAlpha"/>
<feOffset dy="2.84768"/>
<feComposite in2="hardAlpha" operator="out"/>
<feColorMatrix type="matrix" values="0 0 0 0 1 0 0 0 0 1 0 0 0 0 1 0 0 0 1 0"/>
<feBlend mode="normal" in2="effect1_dropShadow_524_11999" result="effect2_dropShadow_524_11999"/>
<feColorMatrix in="SourceAlpha" type="matrix" values="0 0 0 0 0 0 0 0 0 0 0 0 0 0 0 0 0 0 127 0" result="hardAlpha"/>
<feOffset dx="3.10656" dy="1.03552"/>
<feComposite in2="hardAlpha" operator="out"/>
<feColorMatrix type="matrix" values="0 0 0 0 1 0 0 0 0 1 0 0 0 0 1 0 0 0 1 0"/>
<feBlend mode="normal" in2="effect2_dropShadow_524_11999" result="effect3_dropShadow_524_11999"/>
<feBlend mode="normal" in="SourceGraphic" in2="effect3_dropShadow_524_11999" result="shape"/>
</filter>
<filter id="filter1_ddd_524_11999" x="661.166" y="526.273" width="463.227" height="175.014" filterUnits="userSpaceOnUse" color-interpolation-filters="sRGB">
<feFlood flood-opacity="0" result="BackgroundImageFix"/>
<feColorMatrix in="SourceAlpha" type="matrix" values="0 0 0 0 0 0 0 0 0 0 0 0 0 0 0 0 0 0 127 0" result="hardAlpha"/>
<feOffset dx="-2.5888" dy="-2.5888"/>
<feComposite in2="hardAlpha" operator="out"/>
<feColorMatrix type="matrix" values="0 0 0 0 1 0 0 0 0 1 0 0 0 0 1 0 0 0 1 0"/>
<feBlend mode="normal" in2="BackgroundImageFix" result="effect1_dropShadow_524_11999"/>
<feColorMatrix in="SourceAlpha" type="matrix" values="0 0 0 0 0 0 0 0 0 0 0 0 0 0 0 0 0 0 127 0" result="hardAlpha"/>
<feOffset dy="2.84768"/>
<feComposite in2="hardAlpha" operator="out"/>
<feColorMatrix type="matrix" values="0 0 0 0 1 0 0 0 0 1 0 0 0 0 1 0 0 0 1 0"/>
<feBlend mode="normal" in2="effect1_dropShadow_524_11999" result="effect2_dropShadow_524_11999"/>
<feColorMatrix in="SourceAlpha" type="matrix" values="0 0 0 0 0 0 0 0 0 0 0 0 0 0 0 0 0 0 127 0" result="hardAlpha"/>
<feOffset dx="3.10656" dy="1.03552"/>
<feComposite in2="hardAlpha" operator="out"/>
<feColorMatrix type="matrix" values="0 0 0 0 1 0 0 0 0 1 0 0 0 0 1 0 0 0 1 0"/>
<feBlend mode="normal" in2="effect2_dropShadow_524_11999" result="effect3_dropShadow_524_11999"/>
<feBlend mode="normal" in="SourceGraphic" in2="effect3_dropShadow_524_11999" result="shape"/>
</filter>
<clipPath id="clip0_524_11999">
<rect width="1080" height="3254" fill="white" transform="translate(0 -1)"/>
</clipPath>
</defs>
</svg>
