<svg width="1080" height="2074" viewBox="0 0 1080 2074" fill="none" xmlns="http://www.w3.org/2000/svg">
<g clip-path="url(#clip0_509_11994)">
<rect width="1080" height="2074" fill="#272B52"/>
<mask id="mask0_509_11994" style="mask-type:alpha" maskUnits="userSpaceOnUse" x="0" y="875" width="1080" height="1199">
<rect y="875" width="1080" height="1199" fill="#D9D9D9"/>
</mask>
<g mask="url(#mask0_509_11994)">
<path d="M1103.91 1160.69C1103.91 1305.01 1208.67 1340.37 907.002 1340.37C605.332 1340.37 -55.3433 1461.32 -55.3433 1317C-55.3433 1172.69 256.017 899.386 557.687 899.386C859.357 899.386 1103.91 1016.38 1103.91 1160.69Z" fill="#CA5355"/>
<path d="M1138.29 1231.82C1138.29 1376.13 1665.45 2911.27 46.6368 2079.08C-255.033 2079.08 -20.962 1532.45 -20.962 1388.13C-20.962 1243.82 290.398 970.513 592.068 970.513C893.738 970.513 1138.29 1087.5 1138.29 1231.82Z" fill="#F36A22"/>
</g>
<g filter="url(#filter0_ddd_509_11994)">
<path d="M-63.7012 1682.53C111.079 1512.89 138.78 1548.03 231.139 1567.99C235.38 1568.91 236.827 1574.37 233.846 1577.53C212.757 1599.83 239.03 1601.38 233.763 1628.29C233.387 1630.22 231.825 1631.66 229.905 1632.05L-59.1943 1691.36C-64.243 1692.4 -67.3994 1686.12 -63.7012 1682.53Z" fill="#BA83F2"/>
<path d="M-61.7557 1678.79C99.7451 1574.64 148.405 1591.58 259.25 1623.32C263.218 1624.46 264.307 1629.53 260.919 1631.89C229.495 1653.77 200.856 1644.8 191.34 1670.85C190.572 1672.95 188.7 1674.53 186.465 1674.65L-58.6861 1688.18C-63.9564 1688.48 -66.1916 1681.65 -61.7557 1678.79Z" fill="#8C3FD9"/>
<path d="M-67.1851 1682.61C120.611 1608.82 205.469 1630.15 312.492 1676.43C316.296 1678.08 316.315 1683.07 312.499 1685.02C311.938 1685.31 311.406 1685.58 310.902 1685.83C313.628 1685.95 315.215 1688.14 311.77 1695.54C310.909 1697.38 308.835 1698.54 306.684 1698.51L-65.6539 1691.87C-71.3715 1691.77 -72.5387 1684.71 -67.1851 1682.61Z" fill="#BA83F2"/>
<path d="M303.967 1545.34C310.56 1538.31 322.358 1542.61 322.893 1552.23L325.421 1597.76C325.664 1602.14 328.493 1605.95 332.612 1607.45L379.688 1624.58C390.327 1628.45 388.817 1643.95 377.63 1645.7L338.308 1651.84C332.746 1652.7 328.747 1657.65 329.059 1663.27L331.091 1699.85C331.669 1710.26 318.758 1715.51 311.902 1707.66L276.137 1666.71C273.664 1663.88 269.912 1662.51 266.197 1663.09L212.474 1671.47C202.175 1673.08 195.664 1660.76 202.796 1653.15L227.868 1626.44C231.72 1622.33 231.834 1615.97 228.131 1611.73L201.953 1581.76C194.506 1573.23 203.311 1560.39 213.951 1564.26L261.026 1581.39C265.145 1582.89 269.761 1581.79 272.761 1578.59L303.967 1545.34Z" fill="white"/>
<path d="M304.894 1548.28C311.487 1541.25 323.286 1545.55 323.82 1555.17L326.23 1598.57C326.473 1602.95 329.302 1606.76 333.421 1608.26L377.939 1624.46C388.578 1628.33 387.068 1643.83 375.881 1645.58L339.043 1651.32C333.481 1652.19 329.483 1657.14 329.795 1662.76L331.708 1697.21C332.286 1707.61 319.375 1712.87 312.519 1705.02L278.408 1665.96C275.935 1663.13 272.183 1661.76 268.468 1662.34L217.229 1670.34C206.931 1671.94 200.42 1659.62 207.552 1652.02L231.162 1626.86C235.013 1622.75 235.127 1616.39 231.424 1612.15L206.9 1584.07C199.453 1575.54 208.259 1562.7 218.898 1566.57L263.416 1582.78C267.535 1584.27 272.151 1583.17 275.151 1579.98L304.894 1548.28Z" fill="#DFCDF2"/>
</g>
</g>
<defs>
<filter id="filter0_ddd_509_11994" x="-73.2211" y="1539.27" width="463.226" height="175.014" filterUnits="userSpaceOnUse" color-interpolation-filters="sRGB">
<feFlood flood-opacity="0" result="BackgroundImageFix"/>
<feColorMatrix in="SourceAlpha" type="matrix" values="0 0 0 0 0 0 0 0 0 0 0 0 0 0 0 0 0 0 127 0" result="hardAlpha"/>
<feOffset dx="-2.5888" dy="-2.5888"/>
<feComposite in2="hardAlpha" operator="out"/>
<feColorMatrix type="matrix" values="0 0 0 0 1 0 0 0 0 1 0 0 0 0 1 0 0 0 1 0"/>
<feBlend mode="normal" in2="BackgroundImageFix" result="effect1_dropShadow_509_11994"/>
<feColorMatrix in="SourceAlpha" type="matrix" values="0 0 0 0 0 0 0 0 0 0 0 0 0 0 0 0 0 0 127 0" result="hardAlpha"/>
<feOffset dy="2.84768"/>
<feComposite in2="hardAlpha" operator="out"/>
<feColorMatrix type="matrix" values="0 0 0 0 1 0 0 0 0 1 0 0 0 0 1 0 0 0 1 0"/>
<feBlend mode="normal" in2="effect1_dropShadow_509_11994" result="effect2_dropShadow_509_11994"/>
<feColorMatrix in="SourceAlpha" type="matrix" values="0 0 0 0 0 0 0 0 0 0 0 0 0 0 0 0 0 0 127 0" result="hardAlpha"/>
<feOffset dx="3.10656" dy="1.03552"/>
<feComposite in2="hardAlpha" operator="out"/>
<feColorMatrix type="matrix" values="0 0 0 0 1 0 0 0 0 1 0 0 0 0 1 0 0 0 1 0"/>
<feBlend mode="normal" in2="effect2_dropShadow_509_11994" result="effect3_dropShadow_509_11994"/>
<feBlend mode="normal" in="SourceGraphic" in2="effect3_dropShadow_509_11994" result="shape"/>
</filter>
<clipPath id="clip0_509_11994">
<rect width="1080" height="2074" fill="white"/>
</clipPath>
</defs>
</svg>
