<svg width="1920" height="1291" viewBox="0 0 1920 1291" fill="none" xmlns="http://www.w3.org/2000/svg">
<g clip-path="url(#clip0_496_11997)">
<rect width="1920" height="1291" fill="#272B52"/>
<path d="M2371.03 772.948C2371.03 944.059 2614.58 985.993 1913.26 985.993C1211.95 985.993 -168.667 944.059 -168.667 772.948C-168.667 601.836 399.863 463.123 1101.18 463.123C1802.5 463.123 2371.03 601.836 2371.03 772.948Z" fill="#E9DEA6"/>
<path d="M1962.5 659.315C1962.5 759.13 2148.75 783.591 1612.45 783.591C1076.14 783.591 -98.3896 867.242 -98.3896 767.427C-98.3896 667.612 455.139 478.584 991.442 478.584C1527.74 478.584 1962.5 559.5 1962.5 659.315Z" fill="#CA5355"/>
<path d="M2023.63 708.51C2023.63 808.325 2960.8 1870.09 82.9094 1294.51C-453.393 1294.51 -37.2662 916.437 -37.2662 816.622C-37.2662 716.807 516.263 527.779 1052.57 527.779C1588.87 527.779 2023.63 608.695 2023.63 708.51Z" fill="#F36A22"/>
<path d="M1450.07 848.05L1559.03 1301.78L1561.35 1314.88L1579.74 1309.71L1610.8 1288.79L1702.38 757.232L1659.55 722.316L1601.43 1290.44L1590.2 1292.42L1620.24 696.431L1570.8 656.89L1522.66 723.288L1577.1 1294.73L1566.52 1300.46L1488.07 800.811L1450.07 848.05Z" stroke="#F4EFD3" stroke-width="3.8021"/>
<path d="M1937.88 841.58L1611.4 1282.86L1601.33 1294.85L1619.9 1307.51L1662.24 1319.68L2210.51 1000.28L2209.59 935.275L1653.67 1312.5L1643.39 1303.87L2203.19 880.277L2201.43 805.823L2105.2 812.655L1631.4 1293.81L1618.25 1288.61L2009.19 840.104L1937.88 841.58Z" stroke="#F4EFD3" stroke-width="4.21669"/>
<path d="M432.36 926.242L698.679 1286.2L706.887 1295.98L691.74 1306.31L657.206 1316.23L209.978 1055.69L210.733 1002.67L664.193 1310.37L672.577 1303.34L215.952 957.807L217.381 897.075L295.878 902.648L682.359 1295.13L693.089 1290.89L374.199 925.038L432.36 926.242Z" stroke="#F4EFD3" stroke-width="4.21669"/>
<path d="M373.148 737.789C371.047 737.789 369.341 739.494 369.341 741.596V764.436C369.341 766.538 371.047 768.243 373.148 768.243C375.249 768.243 376.955 766.538 376.955 764.436V741.596C376.955 739.494 375.249 737.789 373.148 737.789ZM342.456 755.037C341.515 755.289 340.721 755.913 340.196 756.823C339.145 758.642 339.802 761.006 341.624 762.057L361.371 773.477C363.191 774.528 365.554 773.869 366.604 772.05C367.655 770.23 367 767.866 365.177 766.815L345.43 755.395C344.52 754.87 343.397 754.786 342.456 755.037ZM403.838 755.037C402.898 754.786 401.775 754.87 400.865 755.395L381.119 766.815C379.296 767.866 378.641 770.23 379.692 772.05C380.742 773.869 383.103 774.528 384.926 773.477L404.672 762.057C406.495 761.006 407.15 758.642 406.099 756.823C405.574 755.913 404.782 755.289 403.838 755.037ZM364.226 777.878C363.285 777.627 362.281 777.71 361.371 778.236L341.624 789.656C339.803 790.706 339.145 793.07 340.196 794.89C341.247 796.71 343.61 797.368 345.43 796.318L365.177 784.897C367 783.847 367.537 781.483 366.486 779.663C365.961 778.753 365.167 778.129 364.226 777.878ZM382.071 777.878C381.131 778.129 380.335 778.753 379.81 779.663C378.759 781.483 379.418 783.847 381.237 784.897L400.865 796.318C402.688 797.368 405.048 796.71 406.099 794.89C407.15 793.07 406.495 790.706 404.672 789.656L385.044 778.354C384.134 777.828 383.011 777.627 382.071 777.878ZM373.148 783.47C371.047 783.47 369.341 785.175 369.341 787.277V810.117C369.341 812.218 371.047 813.924 373.148 813.924C375.249 813.924 376.955 812.218 376.955 810.117V787.277C376.955 785.175 375.249 783.47 373.148 783.47Z" fill="white"/>
<path d="M475.07 815.918C474.294 815.918 473.665 816.547 473.665 817.323V827.513L464.836 822.418C464.5 822.224 464.086 822.193 463.739 822.286C463.39 822.379 463.098 822.609 462.904 822.945C462.516 823.617 462.758 824.49 463.431 824.878L472.216 829.973L463.431 835.068C462.758 835.456 462.516 836.329 462.904 837.001C463.292 837.673 464.163 837.916 464.836 837.528L473.665 832.433V842.623C473.665 843.399 474.294 844.029 475.07 844.029C475.846 844.029 476.476 843.399 476.476 842.623V832.433L485.304 837.528C485.978 837.916 486.849 837.673 487.237 837.001C487.625 836.329 487.383 835.456 486.71 835.068L477.925 829.973L486.71 824.878C487.383 824.49 487.625 823.617 487.237 822.945C487.043 822.609 486.751 822.379 486.402 822.286C486.055 822.193 485.64 822.224 485.304 822.418L476.476 827.513V817.323C476.476 816.547 475.846 815.918 475.07 815.918Z" fill="white"/>
<path d="M1425.22 710.734C1424 710.734 1423 711.731 1423 712.959V729.094L1409.02 721.027C1408.49 720.719 1407.83 720.67 1407.28 720.817C1406.73 720.964 1406.27 721.329 1405.96 721.861C1405.35 722.925 1405.73 724.307 1406.8 724.921L1420.7 732.988L1406.8 741.056C1405.73 741.67 1405.35 743.052 1405.96 744.116C1406.57 745.18 1407.95 745.565 1409.02 744.95L1423 736.883V753.018C1423 754.246 1424 755.243 1425.22 755.243C1426.45 755.243 1427.45 754.246 1427.45 753.018V736.883L1441.43 744.95C1442.49 745.565 1443.87 745.18 1444.49 744.116C1445.1 743.052 1444.72 741.67 1443.65 741.056L1429.74 732.988L1443.65 724.921C1444.72 724.307 1445.1 722.925 1444.49 721.861C1444.18 721.329 1443.72 720.964 1443.17 720.817C1442.62 720.67 1441.96 720.719 1441.43 721.027L1427.45 729.094V712.959C1427.45 711.731 1426.45 710.734 1425.22 710.734Z" fill="white"/>
<g filter="url(#filter0_ddd_496_11997)">
<path d="M723.413 1032.53C898.193 862.889 925.894 898.028 1018.25 917.993C1022.49 918.909 1023.94 924.372 1020.96 927.525C999.871 949.833 1026.14 951.383 1020.88 978.291C1020.5 980.215 1018.94 981.661 1017.02 982.055L727.92 1041.36C722.871 1042.4 719.715 1036.12 723.413 1032.53Z" fill="#BA83F2"/>
<path d="M725.359 1028.79C886.859 924.644 935.52 941.579 1046.36 973.324C1050.33 974.461 1051.42 979.529 1048.03 981.888C1016.61 1003.77 987.97 994.796 978.454 1020.85C977.687 1022.95 975.814 1024.53 973.58 1024.65L728.428 1038.18C723.158 1038.48 720.923 1031.65 725.359 1028.79Z" fill="#8C3FD9"/>
<path d="M719.929 1032.61C907.725 958.816 992.584 980.153 1099.61 1026.43C1103.41 1028.08 1103.43 1033.07 1099.61 1035.02C1099.05 1035.31 1098.52 1035.58 1098.02 1035.83C1100.74 1035.95 1102.33 1038.14 1098.88 1045.54C1098.02 1047.38 1095.95 1048.54 1093.8 1048.51L721.46 1041.87C715.743 1041.77 714.576 1034.71 719.929 1032.61Z" fill="#BA83F2"/>
<path d="M1091.08 895.338C1097.67 888.312 1109.47 892.607 1110.01 902.227L1112.54 947.761C1112.78 952.138 1115.61 955.948 1119.73 957.447L1166.8 974.581C1177.44 978.454 1175.93 993.953 1164.74 995.698L1125.42 1001.84C1119.86 1002.7 1115.86 1007.65 1116.17 1013.27L1118.21 1049.85C1118.78 1060.26 1105.87 1065.51 1099.02 1057.66L1063.25 1016.71C1060.78 1013.88 1057.03 1012.51 1053.31 1013.09L999.588 1021.47C989.29 1023.08 982.779 1010.76 989.911 1003.15L1014.98 976.436C1018.83 972.331 1018.95 965.975 1015.25 961.734L989.068 931.757C981.62 923.229 990.426 910.385 1001.07 914.258L1048.14 931.392C1052.26 932.891 1056.88 931.791 1059.88 928.594L1091.08 895.338Z" fill="white"/>
<path d="M1092.01 898.28C1098.6 891.254 1110.4 895.548 1110.93 905.168L1113.34 948.569C1113.59 952.946 1116.42 956.756 1120.54 958.255L1165.05 974.458C1175.69 978.331 1174.18 993.83 1163 995.576L1126.16 1001.32C1120.6 1002.19 1116.6 1007.14 1116.91 1012.76L1118.82 1047.21C1119.4 1057.61 1106.49 1062.87 1099.63 1055.02L1065.52 1015.96C1063.05 1013.13 1059.3 1011.76 1055.58 1012.34L1004.34 1020.34C994.045 1021.94 987.534 1009.62 994.666 1002.02L1018.28 976.856C1022.13 972.751 1022.24 966.395 1018.54 962.155L994.015 934.072C986.567 925.543 995.373 912.7 1006.01 916.572L1050.53 932.775C1054.65 934.275 1059.27 933.174 1062.26 929.977L1092.01 898.28Z" fill="#DFCDF2"/>
</g>
</g>
<defs>
<filter id="filter0_ddd_496_11997" x="713.893" y="889.273" width="463.226" height="175.014" filterUnits="userSpaceOnUse" color-interpolation-filters="sRGB">
<feFlood flood-opacity="0" result="BackgroundImageFix"/>
<feColorMatrix in="SourceAlpha" type="matrix" values="0 0 0 0 0 0 0 0 0 0 0 0 0 0 0 0 0 0 127 0" result="hardAlpha"/>
<feOffset dx="-2.5888" dy="-2.5888"/>
<feComposite in2="hardAlpha" operator="out"/>
<feColorMatrix type="matrix" values="0 0 0 0 1 0 0 0 0 1 0 0 0 0 1 0 0 0 1 0"/>
<feBlend mode="normal" in2="BackgroundImageFix" result="effect1_dropShadow_496_11997"/>
<feColorMatrix in="SourceAlpha" type="matrix" values="0 0 0 0 0 0 0 0 0 0 0 0 0 0 0 0 0 0 127 0" result="hardAlpha"/>
<feOffset dy="2.84768"/>
<feComposite in2="hardAlpha" operator="out"/>
<feColorMatrix type="matrix" values="0 0 0 0 1 0 0 0 0 1 0 0 0 0 1 0 0 0 1 0"/>
<feBlend mode="normal" in2="effect1_dropShadow_496_11997" result="effect2_dropShadow_496_11997"/>
<feColorMatrix in="SourceAlpha" type="matrix" values="0 0 0 0 0 0 0 0 0 0 0 0 0 0 0 0 0 0 127 0" result="hardAlpha"/>
<feOffset dx="3.10656" dy="1.03552"/>
<feComposite in2="hardAlpha" operator="out"/>
<feColorMatrix type="matrix" values="0 0 0 0 1 0 0 0 0 1 0 0 0 0 1 0 0 0 1 0"/>
<feBlend mode="normal" in2="effect2_dropShadow_496_11997" result="effect3_dropShadow_496_11997"/>
<feBlend mode="normal" in="SourceGraphic" in2="effect3_dropShadow_496_11997" result="shape"/>
</filter>
<clipPath id="clip0_496_11997">
<rect width="1920" height="1291" fill="white"/>
</clipPath>
</defs>
</svg>
